<svg width="24" height="24" viewBox="0 0 24 24" fill="none" xmlns="http://www.w3.org/2000/svg">
<g id="Frame">
<g id="Group">
<path id="Vector" d="M22.6663 14.1333C22.6666 13.1968 22.4357 12.2747 21.9939 11.4489C21.5522 10.6231 20.9133 9.91918 20.1341 9.39968C19.3548 8.88019 18.4594 8.56118 17.5272 8.47101C16.595 8.38083 15.655 8.52227 14.7907 8.88277C13.9263 9.24326 13.1644 9.81165 12.5725 10.5375C11.9806 11.2633 11.5772 12.124 11.398 13.0432C11.2188 13.9624 11.2695 14.9117 11.5454 15.8066C11.8213 16.7016 12.314 17.5146 12.9796 18.1733L11.793 20.2266C11.7369 20.3244 11.7048 20.434 11.6992 20.5465C11.6937 20.659 11.7149 20.7712 11.761 20.874C11.8072 20.9768 11.8771 21.0671 11.9649 21.1377C12.0527 21.2082 12.156 21.257 12.2663 21.28L13.453 21.52L14.253 22.4266C14.3199 22.5021 14.402 22.5624 14.4939 22.6038C14.5858 22.6452 14.6855 22.6666 14.7863 22.6666C14.9102 22.6649 15.0316 22.6315 15.1389 22.5697C15.2462 22.5079 15.336 22.4196 15.3996 22.3133L16.8396 19.82H17.1196L18.5596 22.3133C18.6166 22.4101 18.6956 22.492 18.7902 22.5525C18.8849 22.6129 18.9924 22.6502 19.1042 22.6613C19.2159 22.6723 19.3287 22.6568 19.4333 22.616C19.538 22.5753 19.6315 22.5104 19.7063 22.4266L20.5063 21.52L21.693 21.28C21.8033 21.257 21.9065 21.2082 21.9944 21.1377C22.0822 21.0671 22.152 20.9768 22.1982 20.874C22.2444 20.7712 22.2656 20.659 22.26 20.5465C22.2545 20.434 22.2224 20.3244 22.1663 20.2266L20.9796 18.1733C21.5144 17.6452 21.9388 17.0161 22.2284 16.3225C22.5179 15.629 22.6668 14.8849 22.6663 14.1333ZM12.713 14.1333C12.713 13.2894 12.9632 12.4645 13.432 11.7629C13.9009 11.0612 14.5672 10.5143 15.3469 10.1914C16.1265 9.86848 16.9844 9.78399 17.812 9.94862C18.6397 10.1132 19.3999 10.5196 19.9966 11.1163C20.5933 11.713 20.9997 12.4733 21.1643 13.3009C21.3289 14.1286 21.2445 14.9865 20.9215 15.7661C20.5986 16.5457 20.0517 17.2121 19.3501 17.6809C18.6484 18.1497 17.8235 18.4 16.9796 18.4C15.8486 18.3982 14.7644 17.9481 13.9646 17.1483C13.1648 16.3486 12.7147 15.2643 12.713 14.1333ZM14.6663 20.7466L14.3596 20.4C14.2584 20.2848 14.1229 20.2053 13.973 20.1733L13.5263 20.08L14.1263 19.04C14.5084 19.2648 14.9157 19.4438 15.3396 19.5733L14.6663 20.7466ZM20.4463 20.08L19.9996 20.1733C19.8497 20.2053 19.7142 20.2848 19.613 20.4L19.3063 20.7466L18.6396 19.58C19.0636 19.4504 19.4708 19.2714 19.853 19.0466L20.4463 20.08Z" fill="#9A57FE"/>
<path id="Vector_2" d="M21.6273 2.37327C21.2981 2.04217 20.9064 1.77975 20.475 1.60122C20.0435 1.42269 19.5809 1.33161 19.114 1.33327H4.88732C3.94492 1.33327 3.04111 1.70764 2.37473 2.37402C1.70835 3.0404 1.33398 3.9442 1.33398 4.88661V14.8466C1.33398 15.3132 1.42589 15.7753 1.60447 16.2064C1.78304 16.6375 2.04477 17.0292 2.37473 17.3592C2.70469 17.6892 3.09641 17.9509 3.52752 18.1295C3.95863 18.308 4.42069 18.3999 4.88732 18.3999H10.574V16.9799H4.88732C4.32152 16.9799 3.7789 16.7552 3.37882 16.3551C2.97875 15.955 2.75398 15.4124 2.75398 14.8466V4.88661C2.75398 4.32081 2.97875 3.77819 3.37882 3.37811C3.7789 2.97804 4.32152 2.75327 4.88732 2.75327H19.114C19.6798 2.75327 20.2224 2.97804 20.6225 3.37811C21.0226 3.77819 21.2473 4.32081 21.2473 4.88661V7.73327H22.6673V4.88661C22.669 4.41969 22.5779 3.95709 22.3994 3.52564C22.2208 3.0942 21.9584 2.7025 21.6273 2.37327Z" fill="#9A57FE"/>
<path id="Vector_3" d="M5.59961 4.88672H18.3996V6.30672H5.59961V4.88672ZM5.59961 9.15338H9.86628V10.5734H5.59961V9.15338ZM5.59961 13.4201H9.86628V14.8401H5.59961V13.4201Z" fill="#9A57FE"/>
</g>
</g>
</svg>
