<svg width="24" height="24" viewBox="0 0 24 24" fill="none" xmlns="http://www.w3.org/2000/svg">
<g id="Frame">
<g id="Group">
<path id="Vector" d="M9.00809 10.75C8.16752 10.75 7.34583 10.5007 6.64692 10.0337C5.94801 9.56675 5.40328 8.90299 5.08161 8.12641C4.75993 7.34982 4.67577 6.49529 4.83976 5.67087C5.00374 4.84645 5.40852 4.08917 6.00289 3.4948C6.59726 2.90042 7.35454 2.49565 8.17896 2.33166C9.00338 2.16768 9.85791 2.25184 10.6345 2.57351C11.4111 2.89519 12.0748 3.43992 12.5418 4.13883C13.0088 4.83774 13.2581 5.65943 13.2581 6.5C13.2568 7.62677 12.8086 8.707 12.0118 9.50374C11.2151 10.3005 10.1349 10.7487 9.00809 10.75ZM9.00809 3.75C8.4642 3.75 7.93251 3.91129 7.48028 4.21346C7.02804 4.51563 6.67557 4.94513 6.46743 5.44762C6.25928 5.95012 6.20483 6.50305 6.31093 7.0365C6.41704 7.56995 6.67896 8.05995 7.06355 8.44455C7.44814 8.82914 7.93815 9.09105 8.4716 9.19716C9.00504 9.30327 9.55798 9.24881 10.0605 9.04067C10.563 8.83253 10.9925 8.48005 11.2946 8.02782C11.5968 7.57558 11.7581 7.0439 11.7581 6.5C11.7576 5.77082 11.4677 5.07165 10.9521 4.55604C10.4364 4.04043 9.73728 3.75053 9.00809 3.75ZM12.9991 21.75H4.99909C2.57909 21.75 1.24609 20.425 1.24609 18.019C1.24609 15.357 2.75209 12.25 6.99609 12.25H10.9961C15.2401 12.25 16.7461 15.357 16.7461 18.019C16.7491 20.425 15.4161 21.75 12.9991 21.75ZM6.99909 13.75C6.42808 13.7058 5.85428 13.7861 5.31732 13.9853C4.78036 14.1845 4.29302 14.4979 3.88895 14.9037C3.48488 15.3096 3.1737 15.7983 2.97691 16.3362C2.78011 16.874 2.70239 17.4482 2.74909 18.019C2.74909 19.583 3.42309 20.25 5.00209 20.25H12.9991C14.5781 20.25 15.2521 19.583 15.2521 18.019C15.2989 17.4479 15.2211 16.8735 15.0241 16.3354C14.8271 15.7973 14.5157 15.3084 14.1113 14.9025C13.7069 14.4966 13.2191 14.1833 12.6818 13.9843C12.1445 13.7853 11.5703 13.7054 10.9991 13.75H6.99909ZM16.5591 11.19C15.6622 11.1931 14.8002 10.8432 14.1591 10.216C14.0375 10.074 13.9734 9.89175 13.9792 9.70493C13.985 9.5181 14.0604 9.34018 14.1905 9.20603C14.3207 9.07187 14.4962 8.99115 14.6828 8.97968C14.8694 8.9682 15.0535 9.02681 15.1991 9.144C15.5616 9.4974 16.0488 9.69359 16.5551 9.69C16.8146 9.69281 17.072 9.64378 17.3123 9.54577C17.5526 9.44777 17.7709 9.30276 17.9544 9.11927C18.1379 8.93577 18.2829 8.71748 18.3809 8.4772C18.4789 8.23692 18.5279 7.97949 18.5251 7.72C18.5243 7.19777 18.3165 6.69715 17.9472 6.32788C17.5779 5.9586 17.0773 5.7508 16.5551 5.75C16.2681 5.74543 15.9842 5.80955 15.7271 5.937C15.5498 6.02731 15.3439 6.04348 15.1547 5.98197C14.9654 5.92046 14.8084 5.7863 14.7181 5.609C14.6278 5.4317 14.6116 5.2258 14.6731 5.03657C14.7346 4.84735 14.8688 4.69031 15.0461 4.6C15.5151 4.3639 16.034 4.24387 16.5591 4.25C17.4794 4.25 18.362 4.61559 19.0128 5.26634C19.6635 5.91709 20.0291 6.7997 20.0291 7.72C20.0291 8.6403 19.6635 9.52291 19.0128 10.1737C18.362 10.8244 17.4794 11.19 16.5591 11.19ZM19.6591 19.75H18.9791C18.7802 19.75 18.5894 19.671 18.4488 19.5303C18.3081 19.3897 18.2291 19.1989 18.2291 19C18.2291 18.8011 18.3081 18.6103 18.4488 18.4697C18.5894 18.329 18.7802 18.25 18.9791 18.25H19.6591C20.8041 18.25 21.2491 17.81 21.2491 16.68C21.2834 16.2585 21.2258 15.8346 21.0802 15.4375C20.9347 15.0405 20.7047 14.6797 20.4062 14.3802C20.1076 14.0807 19.7476 13.8496 19.351 13.7028C18.9544 13.556 18.5307 13.4971 18.1091 13.53H16.5991C16.4002 13.53 16.2094 13.451 16.0688 13.3103C15.9281 13.1697 15.8491 12.9789 15.8491 12.78C15.8491 12.5811 15.9281 12.3903 16.0688 12.2497C16.2094 12.109 16.4002 12.03 16.5991 12.03H18.1091C18.7298 11.9892 19.3521 12.0816 19.9342 12.3011C20.5164 12.5205 21.0448 12.8618 21.4842 13.3021C21.9236 13.7425 22.2638 14.2717 22.482 14.8543C22.7001 15.4369 22.7912 16.0593 22.7491 16.68C22.7918 17.0954 22.7411 17.5152 22.6007 17.9084C22.4602 18.3017 22.2335 18.6586 21.9373 18.9529C21.641 19.2473 21.2827 19.4716 20.8885 19.6095C20.4943 19.7475 20.0742 19.7954 19.6591 19.75Z" fill="#9A57FE"/>
</g>
</g>
</svg>
