<svg width="21" height="20" viewBox="0 0 21 20" fill="none" xmlns="http://www.w3.org/2000/svg">
<g id="eye">
<g id="Icon">
<path d="M2.51677 10.5943C2.40328 10.4146 2.34654 10.3248 2.31477 10.1862C2.29091 10.0821 2.29091 9.91792 2.31477 9.81383C2.34654 9.67524 2.40328 9.58539 2.51677 9.40569C3.45461 7.92071 6.24617 4.16667 10.5003 4.16667C14.7545 4.16667 17.5461 7.92071 18.4839 9.40569C18.5974 9.58539 18.6541 9.67524 18.6859 9.81383C18.7098 9.91792 18.7098 10.0821 18.6859 10.1862C18.6541 10.3248 18.5974 10.4146 18.4839 10.5943C17.5461 12.0793 14.7545 15.8333 10.5003 15.8333C6.24617 15.8333 3.45461 12.0793 2.51677 10.5943Z" stroke="#475467" stroke-width="1.66667" stroke-linecap="round" stroke-linejoin="round"/>
<path d="M10.5003 12.5C11.881 12.5 13.0003 11.3807 13.0003 10C13.0003 8.61929 11.881 7.50001 10.5003 7.50001C9.11962 7.50001 8.00034 8.61929 8.00034 10C8.00034 11.3807 9.11962 12.5 10.5003 12.5Z" stroke="#475467" stroke-width="1.66667" stroke-linecap="round" stroke-linejoin="round"/>
</g>
</g>
</svg>
