<svg width="22" height="22" viewBox="0 0 22 22" fill="none" xmlns="http://www.w3.org/2000/svg">
<g id="Frame" clip-path="url(#clip0_0_21623)">
<g id="Group">
<path id="Vector" d="M20.1235 15.4245C19.8114 15.2531 19.4196 15.3671 19.2483 15.6791C19.0769 15.9911 19.1908 16.3829 19.5028 16.5543C20.2706 16.9761 20.7109 17.4437 20.7109 17.8372C20.7109 18.3185 20.029 19.0644 18.1151 19.7147C16.2242 20.3571 13.6974 20.7109 11 20.7109C8.30264 20.7109 5.77577 20.3571 3.88493 19.7147C1.97098 19.0644 1.28906 18.3185 1.28906 17.8372C1.28906 17.4437 1.72941 16.9761 2.49717 16.5543C2.80917 16.3829 2.92312 15.991 2.75172 15.679C2.58032 15.3671 2.18857 15.2531 1.87649 15.4245C1.02046 15.8948 0 16.6951 0 17.8372C0 18.7126 0.602078 19.9608 3.47024 20.9352C5.49115 21.6218 8.16527 21.9999 11 21.9999C13.8347 21.9999 16.5089 21.6218 18.5298 20.9352C21.3979 19.9608 22 18.7126 22 17.8372C22 16.6951 20.9795 15.8948 20.1235 15.4245Z" fill="#9A57FE"/>
<path id="Vector_2" d="M6.13305 18.783C7.44145 19.1526 9.16961 19.3562 10.9992 19.3562C12.8287 19.3562 14.5569 19.1526 15.8653 18.783C17.466 18.3308 18.2777 17.6762 18.2777 16.8376C18.2777 15.9989 17.466 15.3443 15.8653 14.8922C15.51 14.7918 15.1235 14.7038 14.7126 14.6287C14.4818 15.0272 14.248 15.4241 14.0112 15.8192C14.466 15.8875 14.893 15.9711 15.2808 16.0699C16.4588 16.37 16.8892 16.7077 16.9776 16.8376C16.8891 16.9675 16.4588 17.3053 15.2808 17.6053C14.1658 17.8893 12.7312 18.0513 11.2203 18.0657C11.1467 18.0713 11.073 18.0741 10.9992 18.0742C10.9249 18.0742 10.8512 18.0711 10.778 18.0657C9.26707 18.0513 7.83251 17.8893 6.71752 17.6053C5.53948 17.3053 5.10915 16.9675 5.02068 16.8376C5.10915 16.7077 5.53953 16.37 6.71756 16.0699C7.10531 15.9712 7.53229 15.8875 7.98711 15.8192C7.74266 15.411 7.50887 15.0141 7.28573 14.6287C6.87487 14.7038 6.48836 14.7918 6.13305 14.8922C4.53234 15.3443 3.7207 15.9989 3.7207 16.8376C3.7207 17.6762 4.53234 18.3308 6.13305 18.783Z" fill="#9A57FE"/>
<path id="Vector_3" d="M10.9994 16.7851C11.5731 16.7851 12.0943 16.4927 12.3936 16.003C14.4909 12.5716 16.9909 8.04934 16.9909 5.99152C16.9909 2.68778 14.3032 0 10.9994 0C7.69559 0 5.00781 2.68778 5.00781 5.99152C5.00781 8.04934 7.50786 12.5716 9.60513 16.003C9.90445 16.4927 10.4257 16.7851 10.9994 16.7851ZM8.59111 5.58014C8.59111 4.25227 9.67147 3.17195 10.9994 3.17195C12.3273 3.17195 13.4076 4.25227 13.4076 5.58014C13.4076 6.90804 12.3273 7.98836 10.9994 7.98836C9.67147 7.98836 8.59111 6.90809 8.59111 5.58014Z" fill="#9A57FE"/>
</g>
</g>
<defs>
<clipPath id="clip0_0_21623">
<rect width="22" height="22" fill="white"/>
</clipPath>
</defs>
</svg>
