<svg width="24" height="24" viewBox="0 0 24 24" fill="none" xmlns="http://www.w3.org/2000/svg">
<g id="Frame">
<g id="Group">
<path id="Vector" d="M9.00818 10.75C9.84875 10.75 10.6704 10.5007 11.3694 10.0337C12.0683 9.56675 12.613 8.90299 12.9347 8.12641C13.2563 7.34982 13.3405 6.49529 13.1765 5.67087C13.0125 4.84645 12.6078 4.08917 12.0134 3.4948C11.419 2.90042 10.6617 2.49565 9.83731 2.33166C9.01289 2.16768 8.15836 2.25184 7.38177 2.57351C6.60519 2.89519 5.94143 3.43992 5.47443 4.13883C5.00744 4.83774 4.75818 5.65943 4.75818 6.5C4.7595 7.62677 5.20769 8.707 6.00443 9.50374C6.80118 10.3005 7.88141 10.7487 9.00818 10.75ZM9.00818 3.75C9.55208 3.75 10.0838 3.91129 10.536 4.21346C10.9882 4.51563 11.3407 4.94513 11.5488 5.44762C11.757 5.95012 11.8114 6.50305 11.7053 7.0365C11.5992 7.56995 11.3373 8.05995 10.9527 8.44455C10.5681 8.82914 10.0781 9.09105 9.54468 9.19716C9.01123 9.30327 8.45829 9.24881 7.9558 9.04067C7.4533 8.83253 7.02381 8.48005 6.72164 8.02782C6.41946 7.57558 6.25818 7.0439 6.25818 6.5C6.25897 5.7709 6.54896 5.07189 7.06451 4.55634C7.58006 4.04078 8.27908 3.7508 9.00818 3.75ZM16.7492 18.02C16.7492 20.425 15.4172 21.75 12.9992 21.75H6.88918C6.69026 21.75 6.4995 21.671 6.35885 21.5303C6.21819 21.3897 6.13918 21.1989 6.13918 21C6.13918 20.8011 6.21819 20.6103 6.35885 20.4697C6.4995 20.329 6.69026 20.25 6.88918 20.25H12.9992C14.5762 20.25 15.2492 19.583 15.2492 18.02C15.2708 17.347 15.1369 16.678 14.858 16.0651C14.5792 15.4522 14.1628 14.9119 13.6412 14.486C13.4778 14.3724 13.3663 14.1985 13.3311 14.0026C13.2959 13.8067 13.34 13.6049 13.4537 13.4415C13.5673 13.2781 13.7412 13.1666 13.9371 13.1314C14.133 13.0963 14.3348 13.1404 14.4982 13.254C15.2277 13.81 15.8129 14.5332 16.2047 15.3626C16.5964 16.192 16.7831 17.1034 16.7492 18.02ZM19.4812 8.472C19.6113 8.59445 19.693 8.75965 19.7114 8.93739C19.7297 9.11512 19.6835 9.29353 19.5812 9.44C19.2575 10.0056 18.7805 10.468 18.2052 10.774C18.0908 10.8388 17.9617 10.8732 17.8302 10.874C17.6827 10.8738 17.5385 10.8301 17.4158 10.7482C17.2931 10.6663 17.1973 10.5499 17.1406 10.4138C17.0838 10.2776 17.0686 10.1277 17.0968 9.9829C17.125 9.8381 17.1954 9.70489 17.2992 9.6C17.3562 9.54217 17.4216 9.49329 17.4932 9.455C17.8371 9.27534 18.1193 8.99667 18.3032 8.655C18.3341 8.59903 18.3721 8.54727 18.4162 8.501C18.5539 8.35657 18.7432 8.27246 18.9427 8.26702C19.1422 8.26159 19.3358 8.33528 19.4812 8.472ZM22.7492 16.68C22.7919 17.0954 22.7412 17.5152 22.6007 17.9084C22.4603 18.3017 22.2336 18.6586 21.9373 18.9529C21.6411 19.2473 21.2827 19.4716 20.8886 19.6095C20.4944 19.7475 20.0743 19.7954 19.6592 19.75H18.9792C18.7803 19.75 18.5895 19.671 18.4488 19.5303C18.3082 19.3897 18.2292 19.1989 18.2292 19C18.2292 18.8011 18.3082 18.6103 18.4488 18.4697C18.5895 18.329 18.7803 18.25 18.9792 18.25H19.6592C20.8042 18.25 21.2492 17.81 21.2492 16.68C21.2835 16.2585 21.2258 15.8346 21.0803 15.4375C20.9348 15.0405 20.7048 14.6797 20.4062 14.3802C20.1077 14.0807 19.7477 13.8496 19.3511 13.7028C18.9545 13.556 18.5308 13.4971 18.1092 13.53H16.5992C16.4003 13.53 16.2095 13.451 16.0688 13.3103C15.9282 13.1697 15.8492 12.9789 15.8492 12.78C15.8492 12.5811 15.9282 12.3903 16.0688 12.2497C16.2095 12.109 16.4003 12.03 16.5992 12.03H18.1092C18.7299 11.9892 19.3522 12.0816 19.9343 12.3011C20.5164 12.5205 21.0449 12.8618 21.4843 13.3021C21.9237 13.7425 22.2639 14.2717 22.4821 14.8543C22.7002 15.4369 22.7913 16.0593 22.7492 16.68ZM21.5292 3.53C21.6617 3.38783 21.7338 3.19978 21.7304 3.00548C21.7269 2.81118 21.6482 2.62579 21.5108 2.48838C21.3734 2.35097 21.188 2.27226 20.9937 2.26883C20.7994 2.2654 20.6114 2.33752 20.4692 2.47L18.2432 4.7C17.7549 4.43312 17.2104 4.28565 16.6542 4.26966C16.098 4.25367 15.546 4.36961 15.0432 4.608C14.871 4.70151 14.7423 4.85866 14.6846 5.04584C14.6268 5.23301 14.6445 5.43536 14.734 5.60962C14.8235 5.78388 14.9776 5.91621 15.1634 5.97833C15.3492 6.04044 15.5519 6.0274 15.7282 5.942C16.1555 5.74899 16.6383 5.71737 17.0872 5.853L10.6872 12.253H6.99918C2.75518 12.253 1.24918 15.361 1.24918 18.023C1.21795 18.5174 1.28514 19.0131 1.44683 19.4814C1.60853 19.9497 1.86153 20.3812 2.19118 20.751L1.46918 21.473C1.39549 21.5417 1.33639 21.6245 1.2954 21.7165C1.2544 21.8085 1.23236 21.9078 1.23059 22.0085C1.22881 22.1092 1.24733 22.2092 1.28505 22.3026C1.32278 22.396 1.37892 22.4808 1.45014 22.552C1.52136 22.6233 1.60619 22.6794 1.69958 22.7171C1.79297 22.7548 1.893 22.7734 1.9937 22.7716C2.0944 22.7698 2.19372 22.7478 2.28572 22.7068C2.37771 22.6658 2.46051 22.6067 2.52918 22.533L21.5292 3.53ZM2.74918 18.02C2.70249 17.4492 2.78022 16.875 2.97701 16.3371C3.1738 15.7992 3.48495 15.3104 3.889 14.9044C4.29305 14.4985 4.78037 14.185 5.31734 13.9857C5.8543 13.7864 6.42811 13.706 6.99918 13.75H9.18818L3.24918 19.69C2.87071 19.2201 2.69123 18.6206 2.74918 18.02Z" fill="#9A57FE"/>
</g>
</g>
</svg>
