<svg width="74" height="75" viewBox="0 0 74 75" fill="none" xmlns="http://www.w3.org/2000/svg">
<g id="Frame">
<g id="Group">
<path id="Vector" d="M41.625 60.625C41.625 52.9591 47.8341 46.75 55.5 46.75V10.9062L47.4062 2.8125H5.78125C5.14531 2.8125 4.625 3.33281 4.625 3.96875V66.4062C4.625 67.0422 5.14531 67.5625 5.78125 67.5625H43.4981C42.2737 65.4553 41.6276 63.0621 41.625 60.625Z" fill="#F4EBFF"/>
<path id="Vector_2" d="M47.4062 2.8125V9.75C47.4062 10.3859 47.9266 10.9062 48.5625 10.9062H55.5L47.4062 2.8125Z" fill="#F9F5FF"/>
<path id="Vector_3" d="M55.5 72.1875C61.8858 72.1875 67.0625 67.0108 67.0625 60.625C67.0625 54.2392 61.8858 49.0625 55.5 49.0625C49.1142 49.0625 43.9375 54.2392 43.9375 60.625C43.9375 67.0108 49.1142 72.1875 55.5 72.1875Z" fill="url(#paint0_linear_0_21802)"/>
<path id="Vector_4" d="M60.4027 54.9709L53.049 62.3247L50.5977 59.8734L48.1465 62.3247L51.4187 65.5969C52.3205 66.4988 53.789 66.4988 54.6909 65.5969L62.8655 57.4222L60.4143 54.9709H60.4027Z" fill="#F1F1F1"/>
<path id="Vector_5" d="M17.3438 25.9375C21.1752 25.9375 24.2812 22.8315 24.2812 19C24.2812 15.1685 21.1752 12.0625 17.3438 12.0625C13.5123 12.0625 10.4062 15.1685 10.4062 19C10.4062 22.8315 13.5123 25.9375 17.3438 25.9375Z" fill="url(#paint1_linear_0_21802)"/>
<g id="Group_2">
<path id="Vector_6" d="M28.9062 17.8438H49.7188V20.1562H28.9062V17.8438ZM28.9062 35.1875H49.7188V37.5H28.9062V35.1875ZM28.9062 52.5312H38.1562V54.8438H28.9062V52.5312Z" fill="#9A57FE"/>
</g>
<path id="Vector_7" d="M15.7136 22.8502C15.413 22.8502 15.1239 22.7346 14.8927 22.5149L12.4414 20.0636L14.0717 18.4333L15.702 20.0636L20.6045 15.1611L22.2348 16.7914L16.5114 22.5149C16.2802 22.7461 15.9911 22.8502 15.6905 22.8502H15.7136Z" fill="#F1F1F1"/>
<path id="Vector_8" d="M17.3438 43.2812C21.1752 43.2812 24.2812 40.1752 24.2812 36.3438C24.2812 32.5123 21.1752 29.4062 17.3438 29.4062C13.5123 29.4062 10.4062 32.5123 10.4062 36.3438C10.4062 40.1752 13.5123 43.2812 17.3438 43.2812Z" fill="url(#paint2_linear_0_21802)"/>
<path id="Vector_9" d="M15.7136 40.1939C15.413 40.1939 15.1239 40.0783 14.8927 39.8586L12.4414 37.4074L14.0717 35.7771L15.702 37.4074L20.6045 32.5049L22.2348 34.1352L16.5114 39.8586C16.2802 40.0899 15.9911 40.1939 15.6905 40.1939H15.7136Z" fill="#F1F1F1"/>
<path id="Vector_10" d="M17.3438 60.625C21.1752 60.625 24.2812 57.519 24.2812 53.6875C24.2812 49.856 21.1752 46.75 17.3438 46.75C13.5123 46.75 10.4062 49.856 10.4062 53.6875C10.4062 57.519 13.5123 60.625 17.3438 60.625Z" fill="url(#paint3_linear_0_21802)"/>
<path id="Vector_11" d="M15.7136 57.5377C15.413 57.5377 15.1239 57.4221 14.8927 57.2024L12.4414 54.7511L14.0717 53.1208L15.702 54.7511L20.6045 49.8486L22.2348 51.4789L16.5114 57.2024C16.2802 57.4336 15.9911 57.5377 15.6905 57.5377H15.7136Z" fill="#F1F1F1"/>
</g>
</g>
<defs>
<linearGradient id="paint0_linear_0_21802" x1="55.5" y1="49.0625" x2="55.5" y2="72.1875" gradientUnits="userSpaceOnUse">
<stop stop-color="#BB7AFE"/>
<stop offset="1" stop-color="#6B29F5"/>
</linearGradient>
<linearGradient id="paint1_linear_0_21802" x1="17.3438" y1="12.0625" x2="17.3438" y2="25.9375" gradientUnits="userSpaceOnUse">
<stop stop-color="#BB7AFE"/>
<stop offset="1" stop-color="#6B29F5"/>
</linearGradient>
<linearGradient id="paint2_linear_0_21802" x1="17.3438" y1="29.4062" x2="17.3438" y2="43.2812" gradientUnits="userSpaceOnUse">
<stop stop-color="#BB7AFE"/>
<stop offset="1" stop-color="#6B29F5"/>
</linearGradient>
<linearGradient id="paint3_linear_0_21802" x1="17.3438" y1="46.75" x2="17.3438" y2="60.625" gradientUnits="userSpaceOnUse">
<stop stop-color="#BB7AFE"/>
<stop offset="1" stop-color="#6B29F5"/>
</linearGradient>
</defs>
</svg>
