<svg width="37" height="36" viewBox="0 0 37 36" fill="none" xmlns="http://www.w3.org/2000/svg">
<g id="Frame">
<g id="Group">
<g id="Group_2">
<g id="Group_3">
<g id="Group_4">
<path id="Vector" d="M15.2146 16.9496C14.6146 16.3496 13.7146 16.3496 13.1146 16.9496C12.5146 17.5496 12.5146 18.4495 13.1146 19.0496L17.6146 23.5496C17.9146 23.8496 18.2146 23.9996 18.6646 23.9996C19.1146 23.9996 19.4146 23.8496 19.7146 23.5496L30.2146 11.5495C30.6646 10.7995 30.6646 9.89955 29.9146 9.44955C29.3146 8.99955 28.4146 8.99955 27.9646 9.59955L18.6646 20.2496L15.2146 16.9496Z" fill="#9A57FE"/>
<path id="Vector_2" d="M32.1646 16.4995C31.2646 16.4995 30.6646 17.0995 30.6646 17.9995C30.6646 24.5995 25.2646 29.9995 18.6646 29.9995C12.0646 29.9995 6.66455 24.5995 6.66455 17.9995C6.66455 14.8495 7.86455 11.8495 10.1146 9.59951C12.3646 7.19951 15.3646 5.99951 18.6646 5.99951C19.5646 5.99951 20.6145 6.14951 21.5145 6.29951C22.2645 6.59951 23.1646 6.14951 23.4646 5.24951C23.7646 4.34951 23.1646 3.74951 22.4146 3.44951H22.2645C21.0646 3.14951 19.8646 2.99951 18.6646 2.99951C10.4146 2.99951 3.66455 9.74951 3.66455 18.1495C3.66455 22.0495 5.31455 25.9495 8.01455 28.6495C10.8646 31.4995 14.6146 32.9995 18.5146 32.9995C26.7645 32.9995 33.5145 26.2495 33.5145 17.9995C33.6646 17.0995 32.9146 16.4995 32.1646 16.4995Z" fill="#9A57FE"/>
</g>
</g>
</g>
</g>
</g>
</svg>
