<svg width="160" height="196" viewBox="0 0 160 196" fill="none" xmlns="http://www.w3.org/2000/svg">
<path d="M64.4463 158.608C66.5861 158.608 68.6359 158.981 70.5597 159.638C71.2876 159.022 71.8251 158.296 71.8251 157.456C71.8251 154.743 68.7954 154.31 66.3058 154.419C64.8629 154.48 63.8753 155.483 63.2812 156.32C61.3677 151.389 57.6204 143.292 53.3999 142.339C49.1253 141.372 42.2532 140.396 36.5358 140.396C30.8184 140.396 23.9488 141.375 19.6743 142.341C15.4537 143.294 11.7116 151.392 9.79809 156.322C9.20655 155.485 8.21121 154.483 6.77351 154.421C4.28132 154.313 1.24902 154.746 1.24902 157.459C1.24902 159.486 4.34304 160.906 5.89648 161.493C4.78027 164.01 5.2535 167.388 5.87591 170.876C6.53946 174.586 7.6351 178.185 12.226 179.218C18.8975 180.722 33.9459 181.106 36.5384 181.106C37.7137 181.106 41.4404 181.026 45.7921 180.8C45.6022 179.741 45.5033 178.668 45.4963 177.592C45.4938 167.122 53.9991 158.608 64.4463 158.608ZM20.5539 146.224C24.476 145.335 31.1579 144.379 36.5384 144.379C41.924 144.379 48.5981 145.335 52.5228 146.224C54.246 146.613 57.1806 151.809 59.3847 157.299C51.8104 156.16 43.2151 155.289 36.5384 155.289C29.8616 155.289 21.2714 156.16 13.7023 157.296C15.891 151.871 18.8564 146.605 20.5539 146.224ZM20.1861 170.301H12.1488C8.70245 170.301 11.331 163.526 12.8072 163.446C14.2835 163.363 20.1861 165.499 21.0914 166.318C21.9941 167.14 21.5029 170.301 20.1861 170.301ZM43.7166 175.297C43.7166 175.419 43.6926 175.54 43.6459 175.653C43.5992 175.765 43.5309 175.868 43.4446 175.954C43.3584 176.041 43.2561 176.109 43.1434 176.156C43.0308 176.203 42.91 176.227 42.7881 176.227H30.2963C30.1744 176.227 30.0536 176.203 29.941 176.156C29.8283 176.109 29.726 176.041 29.6398 175.954C29.5536 175.868 29.4852 175.765 29.4385 175.653C29.3919 175.54 29.3678 175.419 29.3678 175.297V173.885C29.3678 173.372 29.7845 172.955 30.2963 172.955H42.7881C43.2999 172.955 43.7166 173.372 43.7166 173.885V175.297ZM10.6674 181.534V186.04C10.6674 187.269 11.6627 188.26 12.887 188.26H20.0601C20.3514 188.261 20.64 188.204 20.9093 188.092C21.1785 187.981 21.4232 187.817 21.6294 187.611C21.8355 187.405 21.999 187.16 22.1106 186.89C22.2222 186.621 22.2796 186.332 22.2796 186.04V183.147C18.3163 182.85 14.3684 182.42 11.6396 181.804C11.3119 181.728 10.9875 181.638 10.6674 181.534Z" fill="#3C4655"/>
<path d="M64.4463 161.261C62.2883 161.234 60.1464 161.637 58.1448 162.445C56.1432 163.254 54.3218 164.453 52.7863 165.972C51.2508 167.491 50.0317 169.3 49.1996 171.295C48.3676 173.29 47.9393 175.43 47.9395 177.592C47.9396 179.754 48.3683 181.894 49.2006 183.889C50.033 185.884 51.2524 187.693 52.7881 189.212C54.3239 190.731 56.1455 191.929 58.1472 192.738C60.1489 193.546 62.2909 193.948 64.4489 193.921C68.737 193.866 72.8311 192.122 75.8442 189.065C78.8572 186.008 80.5466 181.885 80.5463 177.59C80.5459 173.294 78.8559 169.171 75.8424 166.115C72.8288 163.059 68.7345 161.315 64.4463 161.261ZM68.7209 183.672C68.0396 184.503 67.1317 185.117 66.1078 185.44V187.872H62.9906V185.53C61.7458 185.259 60.7994 184.734 60.1667 183.958C59.4877 183.113 59.1508 182.098 59.1508 180.913H63.1038C63.1681 182.016 63.6259 182.567 64.4695 182.567C65.3542 182.567 65.7915 182.108 65.7915 181.196C65.7915 180.578 65.4545 180.068 64.7755 179.669C64.442 179.477 64.0947 179.311 63.7365 179.172L62.5354 178.687C62.124 178.514 61.7244 178.313 61.3395 178.087C60.928 177.829 60.5807 177.554 60.3004 177.252C59.6214 176.505 59.2845 175.536 59.2845 174.344C59.2845 171.899 60.519 170.337 62.9855 169.66V167.316H66.1052V169.66C68.2811 170.162 69.3561 171.595 69.3253 173.947V174.06H65.7426C65.6834 173.086 65.2591 172.602 64.4669 172.602C63.6336 172.602 63.2118 173.037 63.2118 173.903C63.2118 174.514 63.6027 175.039 64.3769 175.477C64.6469 175.629 64.989 175.781 65.4057 175.941L66.3393 176.294C67.3732 176.691 68.1833 177.255 68.7697 177.979C69.4179 178.762 69.7394 179.682 69.7394 180.738C69.7471 181.841 69.405 182.822 68.7209 183.672Z" fill="#9A57FE"/>
<path d="M159.3 61.431C159.869 62.0332 159.842 62.9826 159.24 63.5515C158.638 64.1204 157.688 64.0934 157.119 63.4912L159.3 61.431ZM108.591 35.9714L107.799 34.6979L107.799 34.6978L108.591 35.9714ZM98.8649 81.2362L97.9064 80.0824L97.907 80.0819L98.8649 81.2362ZM31.14 73.3643L30.1899 72.2036L30.1903 72.2033L31.14 73.3643ZM26.3005 98.7867C26.4312 99.6047 25.8741 100.374 25.056 100.505C24.238 100.635 23.4688 100.078 23.3381 99.2602L26.3005 98.7867ZM38.1953 86.048C38.8027 85.4847 39.7518 85.5205 40.3151 86.128C40.8784 86.7354 40.8426 87.6845 40.2351 88.2478L38.1953 86.048ZM24.5345 100.761L25.5544 101.861C25.2261 102.166 24.7788 102.308 24.335 102.248C23.8911 102.188 23.4971 101.934 23.2607 101.553L24.5345 100.761ZM11.7639 83.0627C11.3265 82.3592 11.5422 81.4343 12.2457 80.9968C12.9492 80.5594 13.8742 80.7751 14.3116 81.4787L11.7639 83.0627ZM158.21 62.4611C157.119 63.4912 157.119 63.4912 157.119 63.4912C157.119 63.4909 157.119 63.4907 157.118 63.4903C157.118 63.4895 157.116 63.4881 157.115 63.4862C157.111 63.4823 157.105 63.4763 157.097 63.4681C157.082 63.4519 157.058 63.4271 157.027 63.3942C156.964 63.3282 156.869 63.2296 156.745 63.1008C156.495 62.8431 156.126 62.4646 155.649 61.9852C154.696 61.0263 153.314 59.6647 151.607 58.0596C148.19 54.8465 143.485 50.6723 138.311 46.8037C133.122 42.924 127.534 39.4071 122.349 37.448C117.115 35.4709 112.654 35.2107 109.384 37.245L107.799 34.6978C112.274 31.9136 117.887 32.5554 123.409 34.6416C128.979 36.7458 134.828 40.4536 140.107 44.401C145.401 48.3595 150.196 52.6146 153.663 55.8741C155.397 57.5054 156.803 58.8909 157.777 59.87C158.263 60.3596 158.642 60.7479 158.901 61.0147C159.03 61.1481 159.129 61.2512 159.196 61.3214C159.229 61.3565 159.255 61.3834 159.272 61.4018C159.281 61.411 159.288 61.418 159.292 61.4229C159.295 61.4253 159.296 61.4272 159.298 61.4286C159.298 61.4293 159.299 61.4299 159.299 61.4302C159.3 61.4307 159.3 61.431 158.21 62.4611ZM109.384 37.245C105.948 39.3833 104.483 42.263 103.992 45.6877C103.486 49.2217 104.026 53.2669 104.662 57.6389C105.283 61.9126 105.994 66.4944 105.617 70.7418C105.232 75.0658 103.713 79.1622 99.8229 82.3905L97.907 80.0819C101.03 77.4903 102.295 74.2239 102.629 70.4761C102.968 66.6517 102.33 62.4527 101.693 58.0704C101.07 53.7865 100.444 49.3006 101.022 45.2622C101.617 41.1145 103.488 37.3806 107.799 34.6979L109.384 37.245ZM99.8234 82.39C94.4403 86.862 88.128 87.7357 81.6672 86.8421C75.2548 85.9551 68.5486 83.3087 62.198 80.5834C55.7622 77.8216 49.7383 75.0035 44.417 73.5482C39.072 72.0865 34.9813 72.1599 32.0898 74.5253L30.1903 72.2033C34.2686 68.867 39.6483 69.1339 45.2084 70.6545C50.7923 72.1816 57.1082 75.1346 63.381 77.8265C69.739 80.555 76.1103 83.0448 82.0783 83.8704C87.9979 84.6892 93.3691 83.8517 97.9064 80.0824L99.8234 82.39ZM32.0902 74.525C27.9786 77.8906 26.4397 83.7633 26.019 89.1399C25.8122 91.7825 25.8834 94.2055 26.0072 95.9701C26.069 96.8507 26.1436 97.5631 26.2022 98.0517C26.2315 98.2959 26.2567 98.4839 26.2743 98.6088C26.2831 98.6713 26.29 98.7179 26.2945 98.7478C26.2968 98.7628 26.2984 98.7736 26.2994 98.7801C26.2999 98.7834 26.3003 98.7855 26.3005 98.7866C26.3006 98.7872 26.3006 98.7875 26.3006 98.7875C26.3006 98.7875 26.3006 98.7873 26.3006 98.7873C26.3005 98.787 26.3005 98.7867 24.8193 99.0234C23.3381 99.2602 23.338 99.2597 23.3379 99.2592C23.3379 99.2589 23.3378 99.2583 23.3377 99.2577C23.3375 99.2566 23.3373 99.2552 23.337 99.2536C23.3365 99.2503 23.3358 99.2459 23.335 99.2404C23.3333 99.2295 23.3309 99.2142 23.328 99.1946C23.3221 99.1556 23.3138 99.0995 23.3037 99.0275C23.2834 98.8833 23.2554 98.6748 23.2235 98.4089C23.1598 97.8774 23.0802 97.1156 23.0145 96.1801C22.8835 94.3123 22.8068 91.735 23.0282 88.9058C23.4638 83.3388 25.0853 76.382 30.1899 72.2036L32.0902 74.525ZM40.2351 88.2478L25.5544 101.861L23.5146 99.6614L38.1953 86.048L40.2351 88.2478ZM23.2607 101.553L11.7639 83.0627L14.3116 81.4787L25.8084 99.9692L23.2607 101.553Z" fill="#9E77ED"/>
</svg>
