<svg width="44" height="43" viewBox="0 0 44 43" fill="none" xmlns="http://www.w3.org/2000/svg">
<g id="Frame" clip-path="url(#clip0_0_16735)">
<g id="Group">
<path id="Vector" d="M43.5254 15.7009C43.4219 15.5743 43.2916 15.4723 43.144 15.402C42.9963 15.3318 42.8349 15.2951 42.6714 15.2946H38.4833C37.4497 12.5707 36.1033 9.90183 34.5728 8.8944C29.2784 5.41411 15.2353 5.41411 9.94091 8.8944C8.40934 9.90293 7.06838 12.5751 6.02934 15.2946H1.8412C1.67756 15.2945 1.51597 15.3309 1.36823 15.4012C1.22049 15.4715 1.09033 15.5739 0.987262 15.7009C0.883564 15.8274 0.80955 15.9756 0.770654 16.1345C0.731757 16.2934 0.728966 16.459 0.762484 16.6191L1.38283 19.6227C1.43426 19.8706 1.56961 20.0932 1.7661 20.253C1.96258 20.4128 2.20818 20.5001 2.46154 20.5002H3.70222C2.50451 21.8808 1.92384 23.6193 1.91612 25.3589C1.90841 27.5081 2.72488 29.4503 4.21789 30.8243C4.23442 30.8387 4.25095 30.8486 4.26637 30.8629V35.0654C4.26637 35.976 5.00682 36.717 5.91915 36.717H9.78224C10.6946 36.717 11.435 35.976 11.435 35.0654V33.3765H33.0765V35.0654C33.0765 35.976 33.8169 36.717 34.7293 36.717H38.5924C39.5025 36.717 40.2451 35.976 40.2451 35.0654V30.9455C41.8296 29.4954 42.5866 27.5004 42.5965 25.5087C42.6031 23.7096 41.996 21.9073 40.7278 20.498H42.0511C42.3048 20.4987 42.551 20.4116 42.7476 20.2514C42.9443 20.0912 43.0793 19.8678 43.1298 19.6194L43.7512 16.6169C43.7832 16.457 43.7796 16.292 43.7406 16.1337C43.7015 15.9754 43.628 15.8276 43.5254 15.7009ZM11.7557 11.6524C15.9758 8.87679 28.5358 8.87679 32.7537 11.6524C33.5734 12.1897 34.6279 14.362 35.5942 17.0221H8.91729C9.88141 14.3631 10.9359 12.1919 11.7557 11.6524ZM6.81275 25.7729C6.8129 24.9113 7.15556 24.0851 7.76534 23.476C8.37513 22.8669 9.2021 22.5248 10.0643 22.5249C10.9265 22.5251 11.7534 22.8675 12.363 23.4768C12.9725 24.0861 13.3149 24.9124 13.3148 25.774C13.3147 26.2006 13.2305 26.623 13.0671 27.0171C12.9037 27.4112 12.6641 27.7693 12.3622 28.0709C12.0603 28.3725 11.7018 28.6117 11.3074 28.7749C10.9129 28.9381 10.4901 29.0221 10.0632 29.022C9.63629 29.0219 9.21355 28.9378 8.81915 28.7745C8.42475 28.6112 8.0664 28.3718 7.76456 28.0701C7.15498 27.4608 6.81261 26.6345 6.81275 25.7729ZM34.4902 29.022C33.6277 29.022 32.8005 28.6796 32.1906 28.0702C31.5807 27.4608 31.2381 26.6342 31.2381 25.7724C31.2381 24.9105 31.5807 24.0839 32.1906 23.4745C32.8005 22.8651 33.6277 22.5227 34.4902 22.5227C35.3527 22.5227 36.1799 22.8651 36.7898 23.4745C37.3997 24.0839 37.7423 24.9105 37.7423 25.7724C37.7423 26.6342 37.3997 27.4608 36.7898 28.0702C36.1799 28.6796 35.3527 29.022 34.4902 29.022Z" fill="white"/>
</g>
</g>
<defs>
<clipPath id="clip0_0_16735">
<rect width="43.0328" height="43" fill="white" transform="translate(0.739258)"/>
</clipPath>
</defs>
</svg>
