<svg width="44" height="30" viewBox="0 0 44 30" fill="none" xmlns="http://www.w3.org/2000/svg">
<g id="Frame">
<g id="Group">
<path id="Vector" d="M22.9842 10.4766C20.9394 10.7734 19.1534 12.7447 19.1362 12.7624C19.1105 12.7897 19.0815 12.8136 19.0499 12.8333C16.2718 14.685 14.7058 13.2763 14.6411 13.1921C12.8638 11.5486 14.4944 8.79318 14.5635 8.678C15.2915 7.4354 16.1731 6.29481 17.1863 5.28466H9.64133L6.36709 16.3772C6.40226 16.3973 6.43426 16.4227 6.46199 16.4526C11.5437 22.3532 18.2907 27.5894 20.9523 29.5652C21.2293 29.7755 21.5738 29.87 21.916 29.8294C22.2583 29.7889 22.5727 29.6164 22.7958 29.3468C23.0189 29.0772 23.1339 28.7306 23.1176 28.3772C23.1013 28.0238 22.955 27.69 22.7081 27.4432L19.0456 23.6822C18.9652 23.5992 18.9201 23.4869 18.9201 23.3699C18.9201 23.2529 18.9652 23.1406 19.0456 23.0576C19.0857 23.0161 19.1334 22.9831 19.186 22.9606C19.2385 22.9381 19.2949 22.9266 19.3519 22.9266C19.4088 22.9266 19.4652 22.9381 19.5178 22.9606C19.5703 22.9831 19.6181 23.0161 19.6582 23.0576L21.608 25.0599L23.3336 26.8319L24.1964 27.7401C24.5059 28.0496 24.9211 28.2224 25.3532 28.2213C25.7852 28.2202 26.1997 28.0454 26.5077 27.7343C26.8157 27.4232 26.9928 27.0005 27.0011 26.5569C27.0093 26.1134 26.848 25.6841 26.5517 25.3612L23.1912 21.7596L22.5528 21.0818C22.5123 21.0407 22.4803 20.9917 22.4583 20.9377C22.4364 20.8837 22.4252 20.8258 22.4252 20.7673C22.4252 20.7088 22.4364 20.6509 22.4583 20.597C22.4803 20.543 22.5123 20.494 22.5528 20.4528C22.5929 20.4113 22.6406 20.3783 22.6932 20.3558C22.7457 20.3333 22.8021 20.3218 22.8591 20.3218C22.916 20.3218 22.9724 20.3333 23.025 20.3558C23.0775 20.3783 23.1252 20.4113 23.1653 20.4528L28.0702 25.6801C28.3077 25.9215 28.6084 26.0869 28.9357 26.1562C29.263 26.2255 29.6028 26.1957 29.9139 26.0704C30.225 25.9451 30.494 25.7298 30.6882 25.4506C30.8825 25.1713 30.9935 24.8402 31.008 24.4973C31.0151 24.2558 30.9728 24.0154 30.8836 23.7918C30.7944 23.5682 30.6604 23.3663 30.4903 23.1994L27.5483 20.2756L25.4992 18.2334C25.4535 18.1943 25.4163 18.146 25.3897 18.0914C25.3631 18.0369 25.3478 17.9772 25.3447 17.9163C25.3416 17.8554 25.3508 17.7945 25.3717 17.7374C25.3926 17.6803 25.4248 17.6282 25.4662 17.5845C25.5076 17.5407 25.5574 17.5062 25.6123 17.4832C25.6673 17.4601 25.7264 17.4489 25.7858 17.4504C25.8452 17.4518 25.9036 17.4658 25.9575 17.4916C26.0113 17.5173 26.0595 17.5542 26.0988 17.5999L31.9225 23.3898C32.0753 23.5509 32.2582 23.6786 32.4602 23.7652C32.6623 23.8517 32.8794 23.8954 33.0983 23.8935C33.3172 23.8916 33.5335 23.8443 33.7342 23.7542C33.9348 23.6642 34.1156 23.5334 34.2657 23.3697C34.4158 23.206 34.532 23.0128 34.6075 22.8017C34.6829 22.5907 34.7159 22.3661 34.7046 22.1416C34.6932 21.917 34.6377 21.6972 34.5414 21.4952C34.4451 21.2933 34.31 21.1135 34.1442 20.9667L22.9842 10.4766ZM8.32559 2.68871C6.08608 1.65478 3.64409 1.16658 1.19043 1.26227V18.6365H3.82621C4.10752 18.6372 4.38139 18.5437 4.60635 18.3703C4.8313 18.1968 4.9951 17.9528 5.07292 17.6752L9.03307 4.28349C9.12359 3.97477 9.10173 3.64279 8.97157 3.34939C8.84141 3.05599 8.61183 2.82118 8.32559 2.68871Z" fill="white"/>
<path id="Vector_2" d="M24.3822 3.54802C23.4519 3.15476 22.4123 3.13108 21.466 3.48157C19.8138 4.10176 17.4023 5.59022 15.2842 9.14304C15.2842 9.16962 13.9598 11.358 15.2065 12.5364C15.2497 12.5762 16.3626 13.5331 18.5196 12.12C18.8302 11.7877 20.7758 9.78538 23.0751 9.56831C23.1345 9.56319 23.1943 9.57079 23.2507 9.59061C23.3072 9.61044 23.359 9.64206 23.4029 9.68349L34.7096 20.3154C34.7614 20.3641 34.8088 20.4172 34.8563 20.4704C36.1504 20.2666 37.0132 19.0528 37.2634 18.6098L33.1652 7.1407L24.3822 3.54802ZM41.7412 3.37525C39.2806 3.35847 36.8401 3.83082 34.5543 4.76625C34.2469 4.90153 34.0024 5.15376 33.8721 5.47007C33.7419 5.78637 33.7359 6.14218 33.8554 6.46292L38.6568 19.8812C38.7505 20.1401 38.9188 20.3635 39.1392 20.5218C39.3595 20.68 39.6216 20.7656 39.8906 20.7672H42.604V3.3974C42.3883 3.38411 42.0906 3.37525 41.7412 3.37525Z" fill="white"/>
</g>
</g>
</svg>
