<svg width="31" height="31" viewBox="0 0 31 31" fill="none" xmlns="http://www.w3.org/2000/svg">
<g id="Frame" clip-path="url(#clip0_0_16841)">
<g id="Group">
<path id="Vector" fill-rule="evenodd" clip-rule="evenodd" d="M25.1722 10.5088L29.4107 14.7473C30.4505 15.7871 30.6837 17.4598 29.7118 18.2264L24.2397 22.5429C23.2671 23.3095 21.7997 23.2809 20.7606 22.2419L17.6777 19.1597C16.6386 18.1199 16.6093 16.6524 17.3766 15.6799L21.6931 10.2077C22.4597 9.23515 24.1324 9.46971 25.1722 10.5088ZM24.0008 12.6992L27.2203 15.9187C27.6065 16.3049 27.6065 16.9363 27.2203 17.3225C26.8342 17.7087 26.2027 17.7087 25.8165 17.3225L22.597 14.103C22.4116 13.9165 22.3075 13.6641 22.3075 13.4011C22.3075 13.1381 22.4116 12.8857 22.597 12.6992C22.9832 12.313 23.6147 12.313 24.0008 12.6992ZM22.4447 8.47276e-06C26.4687 8.47276e-06 29.7318 3.26241 29.7318 7.28714C29.7318 9.17722 29.0117 10.8992 27.831 12.1943L26.9786 11.3419C28.018 10.1833 28.5737 8.67037 28.5313 7.11446C28.4889 5.55854 27.8516 4.0781 26.7505 2.97791C25.6495 1.87771 24.1686 1.2415 22.6127 1.20024C21.0567 1.15897 19.5441 1.71581 18.3864 2.7561C18.1104 2.46257 17.8192 2.18376 17.5139 1.92084C18.8574 0.683089 20.618 -0.00278057 22.4447 8.47276e-06ZM18.475 11.8954C18.6753 12.0678 18.8862 12.2279 19.1079 12.3731L18.3599 13.3221C18.1404 13.1732 17.9291 13.0126 17.727 12.8408C17.9766 12.5405 18.2283 12.2237 18.475 11.8954ZM4.82615 18.9165C6.51528 19.9778 8.04135 20.4862 9.89282 19.2154C12.5745 17.374 20.7899 10.0676 19.8638 6.51695C19.2445 4.14202 16.4956 1.39379 14.1214 0.77449C10.5708 -0.152313 3.26431 8.06305 1.42358 10.7455C0.152799 12.5977 0.660538 14.123 1.7225 15.8122C2.50843 17.0688 3.57002 18.1302 4.82686 18.9158L4.82615 18.9165ZM5.99538 16.42C6.96223 17.0279 7.83611 17.3189 8.89593 16.5916C10.432 15.5368 15.1354 11.3533 14.6048 9.32096C14.2501 7.96151 12.6768 6.38823 11.3173 6.03281C9.28424 5.5029 5.10147 10.2063 4.04737 11.7424C3.31938 12.8022 3.61043 13.6754 4.21829 14.6422C4.66811 15.362 5.27581 15.9699 5.99538 16.42ZM16.5742 4.06407C16.7091 4.19897 16.8162 4.35913 16.8892 4.53539C16.9622 4.71165 16.9998 4.90057 16.9998 5.09135C16.9998 5.28213 16.9622 5.47105 16.8892 5.64731C16.8162 5.82357 16.7091 5.98372 16.5742 6.11863C16.4393 6.25353 16.2792 6.36054 16.1029 6.43355C15.9267 6.50656 15.7377 6.54414 15.547 6.54414C15.1617 6.54414 14.7921 6.39108 14.5197 6.11863C14.2472 5.84627 14.0941 5.47684 14.0941 5.0916C14.094 4.70636 14.247 4.33688 14.5193 4.06443C14.7917 3.79198 15.1611 3.63888 15.5463 3.63881C15.9316 3.63874 16.3011 3.79171 16.5735 4.06407H16.5742Z" fill="#9A57FE"/>
<path id="Vector_2" fill-rule="evenodd" clip-rule="evenodd" d="M8.25904 6.51123L14.1274 12.3796L12.9102 13.5967L7.0419 7.72766L8.25904 6.51123ZM5.40712 9.30952L11.3284 15.2308L10.1127 16.4479L4.19141 10.5267L5.40712 9.30952ZM20.6229 23.0357L19.43 24.2278L18.5268 24.1191L16.6897 25.9555L15.0878 26.1679L14.8761 27.7698L13.2742 27.9815L13.2606 29.3845L11.4607 29.7957L11.2483 31L8.96559 30.9535L8.91982 28.6708L10.1241 28.4592L10.5346 26.6585L11.9377 26.6449L12.15 25.043L13.7519 24.8313L13.9636 23.2294L15.8015 21.393L15.6913 20.4898L16.8842 19.297C16.9779 19.4185 17.0808 19.5351 17.1917 19.646L20.2739 22.7281C20.3847 22.839 20.5013 22.9413 20.6229 23.0357Z" fill="#9A57FE"/>
</g>
</g>
<defs>
<clipPath id="clip0_0_16841">
<rect width="31" height="31" fill="white"/>
</clipPath>
</defs>
</svg>
