<svg width="191" height="47" viewBox="0 0 191 47" fill="none" xmlns="http://www.w3.org/2000/svg">
<g id="Frame 427320229">
<g id="Group 162728">
<g id="Group 162726">
<g id="Group">
<path id="Vector" d="M25.3395 19.916H19.3496V25.9336H25.3395V19.916Z" fill="url(#paint0_linear_103_4943)"/>
</g>
<g id="Group_2">
<g id="Group_3">
<path id="Vector_2" d="M20.2005 10.2996H15.209V15.3437H30.1836V10.2996H20.2005Z" fill="url(#paint1_linear_103_4943)"/>
<path id="Vector_3" d="M25.1931 0.299764C22.433 0.299764 20.0841 1.2732 18.1168 3.22007C16.9423 4.39999 16.1202 5.72741 15.6504 7.20231H21.2585C21.376 7.05482 21.4934 6.90733 21.6402 6.75984C22.6092 5.7864 23.7837 5.28493 25.1637 5.28493H35.5285V0.270264H25.1637L25.1931 0.299764Z" fill="url(#paint2_linear_103_4943)"/>
<path id="Vector_4" d="M0.14681 21.5975C0.205534 24.3703 1.20384 26.7302 3.20046 28.6475C4.4043 29.798 5.72559 30.5944 7.22306 31.0369L7.13497 25.4028C6.98816 25.2848 6.84135 25.1668 6.69454 25.0193C5.69623 24.0753 5.19708 22.8954 5.16772 21.509L4.99154 11.0962L0 11.1847L0.176172 21.5975H0.14681Z" fill="url(#paint3_linear_103_4943)"/>
<path id="Vector_5" d="M21.786 46.3759C24.5461 46.2874 26.8657 45.2255 28.7448 43.1901C29.8899 41.9807 30.6534 40.6238 31.0644 39.1194L25.4563 39.3259C25.3388 39.4734 25.2214 39.6208 25.1039 39.7683C24.1643 40.8008 23.0192 41.3022 21.6392 41.3612L11.2744 41.7152L11.4506 46.7299L21.8154 46.3759H21.786Z" fill="url(#paint4_linear_103_4943)"/>
<path id="Vector_6" d="M46.0691 24.1932C45.9223 21.4204 44.8359 19.1195 42.7805 17.2611C41.5473 16.1402 40.1673 15.4028 38.6992 15.0193L38.9928 20.6534C39.1396 20.7714 39.2865 20.8894 39.4333 21.0074C40.4609 21.9218 41.0188 23.0723 41.0775 24.4587L41.6354 34.842L46.627 34.5765L46.0984 24.1932H46.0691Z" fill="url(#paint5_linear_103_4943)"/>
<path id="Vector_7" d="M20.2005 35.4026H15.209V30.3584H30.1836V35.3731H20.2005V35.4026Z" fill="url(#paint6_linear_103_4943)"/>
<path id="Vector_8" d="M10.1895 25.3438V30.3585H15.2104V15.3145H10.1895V25.3438Z" fill="url(#paint7_linear_103_4943)"/>
<path id="Vector_9" d="M35.2055 25.3438V30.3585H30.1846V15.3145H35.1761V25.3438C35.1468 25.3438 35.1468 25.3438 35.1761 25.3438H35.2055Z" fill="url(#paint8_linear_103_4943)"/>
</g>
</g>
</g>
<g id="Group 162727">
<g id="Group_4">
<g id="Group_5">
<path id="Vector_10" d="M63.9519 27.3201H58.3144L57.3748 30.0339H54.3799L59.4889 15.7568H62.8068L67.9158 30.0339H64.9208L63.9813 27.3201H63.9519ZM63.1885 25.1077L61.1038 19.0901L59.0191 25.1077H63.1591H63.1885Z" fill="#12141D"/>
<path id="Vector_11" d="M80.5132 18.6181V30.0339H77.6358V28.5885C77.254 29.0899 76.7843 29.4734 76.197 29.7389C75.6098 30.0044 74.9638 30.1519 74.2591 30.1519C73.5544 30.1519 72.5855 29.9749 71.9102 29.5914C71.2348 29.2079 70.677 28.6475 70.2952 27.91C69.9135 27.1726 69.708 26.2876 69.708 25.2847V18.5886H72.5855V24.8717C72.5855 25.7861 72.8204 26.4646 73.2608 26.9661C73.7012 27.4675 74.3179 27.7035 75.1106 27.7035C75.9034 27.7035 76.52 27.4675 76.9898 26.9661C77.4302 26.4646 77.6651 25.7861 77.6651 24.8717V18.5886H80.5426L80.5132 18.6181Z" fill="#12141D"/>
<path id="Vector_12" d="M86.5026 20.978V26.4942C86.5026 26.8776 86.5907 27.1726 86.7669 27.3201C86.943 27.4971 87.266 27.5856 87.7065 27.5856H89.0571V30.0339H87.2367C84.7996 30.0339 83.5958 28.854 83.5958 26.4942V20.978H82.2451V18.6182H83.5958V15.7864H86.5026V18.6182H89.0571V20.978H86.5026Z" fill="#12141D"/>
<path id="Vector_13" d="M93.1668 29.5028C92.286 29.0308 91.6106 28.3229 91.1115 27.4379C90.6123 26.553 90.3774 25.5205 90.3774 24.3701C90.3774 23.2197 90.6417 22.1873 91.1408 21.3023C91.64 20.4174 92.3447 19.7389 93.2256 19.2375C94.1064 18.7655 95.0754 18.5 96.1618 18.5C97.2482 18.5 98.2171 18.736 99.098 19.2375C99.9788 19.7094 100.684 20.4174 101.183 21.3023C101.682 22.1873 101.946 23.2197 101.946 24.3701C101.946 25.5205 101.682 26.553 101.153 27.4379C100.625 28.3229 99.9201 29.0013 99.0392 29.5028C98.1584 29.9747 97.1601 30.2402 96.0737 30.2402C94.9873 30.2402 94.0183 30.0042 93.1668 29.5028ZM97.5418 27.3789C97.9822 27.1134 98.3639 26.73 98.6282 26.2285C98.8924 25.727 99.0392 25.1076 99.0392 24.3701C99.0392 23.6327 98.8924 23.0427 98.6282 22.5117C98.3639 21.9808 98.0116 21.6268 97.5711 21.3613C97.1307 21.0958 96.6609 20.9778 96.1324 20.9778C95.3396 20.9778 94.6643 21.2728 94.1064 21.8628C93.5485 22.4527 93.2843 23.2787 93.2843 24.3701C93.2843 25.4615 93.5485 26.2875 94.1064 26.8774C94.6349 27.4674 95.3103 27.7624 96.1324 27.7624C96.6609 27.7624 97.1307 27.6149 97.6005 27.3789H97.5418Z" fill="#12141D"/>
<path id="Vector_14" d="M112.84 15.7864V18.0282H106.909V21.7745H111.46V23.9868H106.909V30.0634H104.061V15.8159H112.84V15.7864Z" fill="#12141D"/>
<path id="Vector_15" d="M115.012 16.9072C114.689 16.5828 114.513 16.1993 114.513 15.7273C114.513 15.2554 114.689 14.8424 115.012 14.5474C115.335 14.2229 115.746 14.0754 116.275 14.0754C116.803 14.0754 117.185 14.2229 117.537 14.5474C117.86 14.8719 118.037 15.2554 118.037 15.7273C118.037 16.1993 117.86 16.6123 117.537 16.9072C117.214 17.2317 116.803 17.3792 116.275 17.3792C115.776 17.3792 115.365 17.2317 115.012 16.9072Z" fill="url(#paint9_linear_103_4943)"/>
<path id="Vector_16" d="M117.714 18.6182H114.837V30.0339H117.714V18.6182Z" fill="#12141D"/>
<path id="Vector_17" d="M129.957 19.7391C130.779 20.5946 131.22 21.804 131.22 23.3379V30.0339H128.342V23.7214C128.342 22.8069 128.107 22.1285 127.667 21.627C127.227 21.1255 126.61 20.8895 125.817 20.8895C125.024 20.8895 124.408 21.1255 123.938 21.627C123.468 22.1285 123.263 22.8069 123.263 23.7214V30.0339H120.385V18.6182H123.263V20.0341C123.644 19.5326 124.144 19.1492 124.731 18.8837C125.318 18.6182 125.964 18.4707 126.698 18.4707C128.049 18.4707 129.135 18.9132 129.987 19.7686L129.957 19.7391Z" fill="#12141D"/>
</g>
</g>
<g id="Group_6">
<path id="Vector_18" d="M134.742 19.2377C135.329 18.1462 136.092 17.3203 137.12 16.7008C138.118 16.0814 139.263 15.7864 140.526 15.7864C141.789 15.7864 143.433 16.1698 144.519 16.9073C145.606 17.6448 146.398 18.7067 146.898 20.0341H145.87C145.459 18.9722 144.813 18.1462 143.903 17.5268C142.992 16.9073 141.877 16.6123 140.526 16.6123C139.175 16.6123 138.5 16.8778 137.619 17.3793C136.738 17.8807 136.063 18.6182 135.564 19.5916C135.065 20.5651 134.8 21.686 134.8 22.9544C134.8 24.2228 135.065 25.3143 135.564 26.2877C136.063 27.2611 136.738 27.9691 137.619 28.5C138.5 29.0015 139.469 29.267 140.526 29.267C141.583 29.267 142.992 28.972 143.903 28.3526C144.813 27.7331 145.459 26.9072 145.87 25.8452H146.898C146.398 27.1726 145.606 28.2346 144.519 28.972C143.433 29.7095 142.111 30.0929 140.526 30.0929C138.94 30.0929 138.148 29.798 137.12 29.1785C136.122 28.5885 135.329 27.7331 134.742 26.6417C134.154 25.5502 133.89 24.3408 133.89 22.9839C133.89 21.5975 134.184 20.3586 134.742 19.2671V19.2377Z" fill="#9A57FE"/>
<path id="Vector_19" d="M151.889 19.3262C152.564 18.8542 153.445 18.6477 154.532 18.6477V19.6211H154.238C153.152 19.6211 152.241 19.9456 151.507 20.5651C150.773 21.1845 150.421 22.217 150.421 23.6329V30.0635H149.511V18.8837H150.421V21.332C150.715 20.4766 151.184 19.7981 151.889 19.3557V19.3262Z" fill="#9A57FE"/>
<path id="Vector_20" d="M166.247 24.6652H156.704C156.704 25.6682 156.939 26.4941 157.35 27.2021C157.761 27.8805 158.29 28.4115 158.965 28.736C159.64 29.0899 160.345 29.2374 161.138 29.2374C161.931 29.2374 163.135 28.9719 163.869 28.441C164.603 27.91 165.072 27.1726 165.249 26.2286H166.218C166.012 27.3495 165.454 28.264 164.544 28.9719C163.634 29.6799 162.518 30.0339 161.138 30.0339C159.758 30.0339 159.171 29.7979 158.378 29.3259C157.556 28.8539 156.939 28.205 156.469 27.3201C156 26.4646 155.765 25.4322 155.765 24.2817C155.765 23.1313 156 22.1284 156.44 21.2434C156.91 20.388 157.526 19.739 158.349 19.2671C159.171 18.7951 160.081 18.5886 161.138 18.5886C162.195 18.5886 163.105 18.8246 163.898 19.2671C164.691 19.739 165.278 20.329 165.689 21.0665C166.1 21.8334 166.306 22.6299 166.306 23.4853C166.306 23.9868 166.306 24.3407 166.276 24.5767L166.247 24.6652ZM164.838 21.4204C164.456 20.742 163.927 20.2405 163.252 19.8865C162.577 19.5621 161.872 19.3851 161.109 19.3851C160.345 19.3851 159.611 19.5621 158.936 19.8865C158.29 20.2405 157.761 20.742 157.35 21.4204C156.939 22.0989 156.734 22.9248 156.704 23.9278H165.366C165.395 22.9248 165.219 22.0989 164.838 21.4204Z" fill="#9A57FE"/>
<path id="Vector_21" d="M168.596 21.3025C169.066 20.447 169.712 19.7686 170.534 19.3261C171.356 18.8541 172.296 18.6477 173.353 18.6477C174.41 18.6477 175.496 18.9426 176.348 19.5031C177.199 20.0636 177.787 20.801 178.139 21.686V14.7539H179.078V29.8864H178.139V26.9366C177.816 27.851 177.229 28.5885 176.407 29.1785C175.584 29.7684 174.557 30.0339 173.382 30.0339C172.208 30.0339 171.386 29.7979 170.563 29.3259C169.741 28.854 169.095 28.205 168.626 27.3201C168.156 26.4646 167.921 25.4617 167.921 24.3113C167.921 23.1609 168.156 22.1579 168.626 21.3025H168.596ZM177.493 21.745C177.082 21.0075 176.524 20.4175 175.819 20.0341C175.115 19.6211 174.322 19.4441 173.441 19.4441C172.56 19.4441 171.709 19.6506 171.033 20.0341C170.358 20.4175 169.8 20.978 169.418 21.7155C169.037 22.4529 168.831 23.3378 168.831 24.3408C168.831 25.3437 169.037 26.2287 169.418 26.9661C169.8 27.7036 170.358 28.264 171.063 28.6475C171.767 29.031 172.56 29.2375 173.47 29.2375C174.381 29.2375 175.144 29.031 175.849 28.6475C176.553 28.2345 177.111 27.6741 177.522 26.9366C177.933 26.1992 178.139 25.3437 178.139 24.3408C178.139 23.3378 177.933 22.5119 177.522 21.7744L177.493 21.745Z" fill="#9A57FE"/>
<path id="Vector_22" d="M182.162 15.8749C182.015 15.7274 181.927 15.5209 181.927 15.2849C181.927 15.0489 182.015 14.8425 182.162 14.695C182.308 14.5475 182.514 14.459 182.72 14.459C182.925 14.459 183.131 14.5475 183.277 14.695C183.424 14.8425 183.512 15.0489 183.512 15.2849C183.512 15.5209 183.424 15.7274 183.277 15.8749C183.131 16.0224 182.925 16.0814 182.72 16.0814C182.514 16.0814 182.308 16.0224 182.162 15.8749ZM183.189 18.6182V29.8865H182.25V18.6182H183.189Z" fill="#9A57FE"/>
<path id="Vector_23" d="M187.652 19.4442V26.8777C187.652 27.7036 187.799 28.2641 188.092 28.5886C188.386 28.9131 188.944 29.0605 189.707 29.0605H190.97V29.8865H189.56C188.591 29.8865 187.857 29.6505 187.417 29.208C186.947 28.7361 186.742 27.9691 186.742 26.9072V19.4737H185.039V18.6772H186.742V15.8159H187.681V18.6772H190.999V19.4737H187.681L187.652 19.4442Z" fill="#9A57FE"/>
</g>
</g>
</g>
</g>
<defs>
<linearGradient id="paint0_linear_103_4943" x1="35.8804" y1="-5.59981" x2="8.75198" y2="51.0866" gradientUnits="userSpaceOnUse">
<stop offset="0.1" stop-color="#C686FF"/>
<stop offset="1" stop-color="#5E1BF4"/>
</linearGradient>
<linearGradient id="paint1_linear_103_4943" x1="32.0334" y1="-6.92732" x2="4.87526" y2="49.9066" gradientUnits="userSpaceOnUse">
<stop stop-color="#C686FF"/>
<stop offset="0.9" stop-color="#5E1BF4"/>
</linearGradient>
<linearGradient id="paint2_linear_103_4943" x1="31.8289" y1="-6.95676" x2="4.70041" y2="49.7296" gradientUnits="userSpaceOnUse">
<stop stop-color="#C686FF"/>
<stop offset="1" stop-color="#5E1BF4"/>
</linearGradient>
<linearGradient id="paint3_linear_103_4943" x1="19.6432" y1="-12.7972" x2="-7.4558" y2="43.9189" gradientUnits="userSpaceOnUse">
<stop stop-color="#C686FF"/>
<stop offset="1" stop-color="#5E1BF4"/>
</linearGradient>
<linearGradient id="paint4_linear_103_4943" x1="41.4879" y1="-2.32538" x2="14.389" y2="54.3612" gradientUnits="userSpaceOnUse">
<stop stop-color="#C686FF"/>
<stop offset="1" stop-color="#5E1BF4"/>
</linearGradient>
<linearGradient id="paint5_linear_103_4943" x1="52.9105" y1="3.13156" x2="25.8115" y2="59.8182" gradientUnits="userSpaceOnUse">
<stop stop-color="#C686FF"/>
<stop offset="1" stop-color="#5E1BF4"/>
</linearGradient>
<linearGradient id="paint6_linear_103_4943" x1="39.7556" y1="-3.15142" x2="12.6271" y2="53.5645" gradientUnits="userSpaceOnUse">
<stop stop-color="#C686FF"/>
<stop offset="1" stop-color="#5E1BF4"/>
</linearGradient>
<linearGradient id="paint7_linear_103_4943" x1="27.7479" y1="-8.96246" x2="0.648935" y2="47.7536" gradientUnits="userSpaceOnUse">
<stop stop-color="#C686FF"/>
<stop offset="1" stop-color="#5E1BF4"/>
</linearGradient>
<linearGradient id="paint8_linear_103_4943" x1="44.0728" y1="-1.17497" x2="16.9444" y2="55.5114" gradientUnits="userSpaceOnUse">
<stop stop-color="#C686FF"/>
<stop offset="1" stop-color="#5E1BF4"/>
</linearGradient>
<linearGradient id="paint9_linear_103_4943" x1="117.038" y1="19.4441" x2="115.705" y2="13.0455" gradientUnits="userSpaceOnUse">
<stop stop-color="#C686FF"/>
<stop offset="1" stop-color="#5E1BF4"/>
</linearGradient>
</defs>
</svg>
