<svg width="191" height="47" viewBox="0 0 191 47" fill="none" xmlns="http://www.w3.org/2000/svg">
<g id="Frame 427320229">
<g id="Group 162728">
<g id="Group 162726">
<g id="Group">
<path id="Vector" d="M25.3395 19.6458H19.3496V25.6634H25.3395V19.6458Z" fill="url(#paint0_linear_0_16954)"/>
</g>
<g id="Group_2">
<g id="Group_3">
<path id="Vector_2" d="M20.2005 10.0293H15.209V15.0735H30.1836V10.0293H20.2005Z" fill="url(#paint1_linear_0_16954)"/>
<path id="Vector_3" d="M25.1931 0.0296219C22.433 0.0296219 20.0841 1.00306 18.1168 2.94993C16.9423 4.12985 16.1202 5.45726 15.6504 6.93217H21.2585C21.376 6.78468 21.4934 6.63719 21.6402 6.4897C22.6092 5.51626 23.7837 5.01479 25.1637 5.01479H35.5285V0.00012207H25.1637L25.1931 0.0296219Z" fill="url(#paint2_linear_0_16954)"/>
<path id="Vector_4" d="M0.14681 21.3272C0.205534 24.1001 1.20384 26.4599 3.20046 28.3773C4.4043 29.5277 5.72559 30.3242 7.22306 30.7666L7.13497 25.1325C6.98816 25.0145 6.84135 24.8965 6.69454 24.749C5.69623 23.8051 5.19708 22.6252 5.16772 21.2387L4.99154 10.8259L0 10.9144L0.176172 21.3272H0.14681Z" fill="url(#paint3_linear_0_16954)"/>
<path id="Vector_5" d="M21.786 46.1056C24.5461 46.0172 26.8657 44.9552 28.7448 42.9199C29.8899 41.7104 30.6534 40.3535 31.0644 38.8491L25.4563 39.0556C25.3388 39.2031 25.2214 39.3506 25.1039 39.4981C24.1643 40.5305 23.0192 41.032 21.6392 41.091L11.2744 41.4449L11.4506 46.4596L21.8154 46.1056H21.786Z" fill="url(#paint4_linear_0_16954)"/>
<path id="Vector_6" d="M46.0691 23.9229C45.9223 21.1501 44.8359 18.8493 42.7805 16.9909C41.5473 15.87 40.1673 15.1325 38.6992 14.749L38.9928 20.3832C39.1396 20.5011 39.2865 20.6191 39.4333 20.7371C40.4609 21.6516 41.0188 22.802 41.0775 24.1884L41.6354 34.5717L46.627 34.3062L46.0984 23.9229H46.0691Z" fill="url(#paint5_linear_0_16954)"/>
<path id="Vector_7" d="M20.2005 35.1321H15.209V30.0879H30.1836V35.1026H20.2005V35.1321Z" fill="url(#paint6_linear_0_16954)"/>
<path id="Vector_8" d="M10.1895 25.0733V30.088H15.2104V15.0439H10.1895V25.0733Z" fill="url(#paint7_linear_0_16954)"/>
<path id="Vector_9" d="M35.2055 25.0734V30.0881H30.1846V15.0441H35.1761V25.0734C35.1468 25.0734 35.1468 25.0734 35.1761 25.0734H35.2055Z" fill="url(#paint8_linear_0_16954)"/>
</g>
</g>
</g>
<g id="Group 162727">
<g id="Group_4">
<g id="Group_5">
<path id="Vector_10" d="M63.9519 27.0497H58.3144L57.3748 29.7635H54.3799L59.4889 15.4865H62.8068L67.9158 29.7635H64.9208L63.9813 27.0497H63.9519ZM63.1885 24.8373L61.1038 18.8197L59.0191 24.8373H63.1591H63.1885Z" fill="white"/>
<path id="Vector_11" d="M80.5132 18.3477V29.7635H77.6358V28.3181C77.254 28.8195 76.7843 29.203 76.197 29.4685C75.6098 29.734 74.9638 29.8815 74.2591 29.8815C73.5544 29.8815 72.5855 29.7045 71.9102 29.321C71.2348 28.9375 70.677 28.3771 70.2952 27.6396C69.9135 26.9022 69.708 26.0172 69.708 25.0143V18.3182H72.5855V24.6013C72.5855 25.5158 72.8204 26.1942 73.2608 26.6957C73.7012 27.1972 74.3179 27.4331 75.1106 27.4331C75.9034 27.4331 76.52 27.1972 76.9898 26.6957C77.4302 26.1942 77.6651 25.5158 77.6651 24.6013V18.3182H80.5426L80.5132 18.3477Z" fill="white"/>
<path id="Vector_12" d="M86.5026 20.7077V26.2238C86.5026 26.6073 86.5907 26.9022 86.7669 27.0497C86.943 27.2267 87.266 27.3152 87.7065 27.3152H89.0571V29.7636H87.2367C84.7996 29.7636 83.5958 28.5836 83.5958 26.2238V20.7077H82.2451V18.3478H83.5958V15.516H86.5026V18.3478H89.0571V20.7077H86.5026Z" fill="white"/>
<path id="Vector_13" d="M93.1663 29.2326C92.2855 28.7607 91.6102 28.0527 91.111 27.1678C90.6118 26.2828 90.377 25.2504 90.377 24.1C90.377 22.9495 90.6412 21.9171 91.1404 21.0322C91.6395 20.1472 92.3442 19.4688 93.2251 18.9673C94.1059 18.4953 95.0749 18.2299 96.1613 18.2299C97.2477 18.2299 98.2166 18.4658 99.0975 18.9673C99.9783 19.4393 100.683 20.1472 101.182 21.0322C101.681 21.9171 101.946 22.9495 101.946 24.1C101.946 25.2504 101.681 26.2828 101.153 27.1678C100.624 28.0527 99.9196 28.7312 99.0388 29.2326C98.1579 29.7046 97.1596 29.9701 96.0732 29.9701C94.9868 29.9701 94.0178 29.7341 93.1663 29.2326ZM97.5413 27.1088C97.9817 26.8433 98.3634 26.4598 98.6277 25.9583C98.8919 25.4569 99.0388 24.8374 99.0388 24.1C99.0388 23.3625 98.8919 22.7726 98.6277 22.2416C98.3634 21.7106 98.0111 21.3566 97.5707 21.0912C97.1302 20.8257 96.6604 20.7077 96.1319 20.7077C95.3391 20.7077 94.6638 21.0027 94.1059 21.5926C93.548 22.1826 93.2838 23.0085 93.2838 24.1C93.2838 25.1914 93.548 26.0173 94.1059 26.6073C94.6344 27.1973 95.3098 27.4922 96.1319 27.4922C96.6604 27.4922 97.1302 27.3448 97.6 27.1088H97.5413Z" fill="white"/>
<path id="Vector_14" d="M112.84 15.5159V17.7577H106.909V21.504H111.46V23.7163H106.909V29.7929H104.061V15.5454H112.84V15.5159Z" fill="white"/>
<path id="Vector_15" d="M115.013 16.6369C114.69 16.3124 114.514 15.9289 114.514 15.4569C114.514 14.985 114.69 14.572 115.013 14.277C115.336 13.9525 115.747 13.8051 116.275 13.8051C116.804 13.8051 117.186 13.9525 117.538 14.277C117.861 14.6015 118.037 14.985 118.037 15.4569C118.037 15.9289 117.861 16.3419 117.538 16.6369C117.215 16.9613 116.804 17.1088 116.275 17.1088C115.776 17.1088 115.365 16.9613 115.013 16.6369Z" fill="url(#paint9_linear_0_16954)"/>
<path id="Vector_16" d="M117.714 18.3478H114.837V29.7635H117.714V18.3478Z" fill="white"/>
<path id="Vector_17" d="M129.957 19.4685C130.779 20.3239 131.219 21.5334 131.219 23.0673V29.7633H128.342V23.4507C128.342 22.5363 128.107 21.8578 127.667 21.3564C127.226 20.8549 126.61 20.6189 125.817 20.6189C125.024 20.6189 124.407 20.8549 123.938 21.3564C123.468 21.8578 123.262 22.5363 123.262 23.4507V29.7633H120.385V18.3476H123.262V19.7635C123.644 19.262 124.143 18.8785 124.73 18.613C125.318 18.3476 125.964 18.2001 126.698 18.2001C128.048 18.2001 129.135 18.6425 129.986 19.498L129.957 19.4685Z" fill="white"/>
</g>
</g>
<g id="Group_6">
<path id="Vector_18" d="M134.742 18.9675C135.329 17.8761 136.093 17.0501 137.12 16.4307C138.119 15.8112 139.264 15.5162 140.526 15.5162C141.789 15.5162 143.433 15.8997 144.52 16.6372C145.606 17.3746 146.399 18.4365 146.898 19.764H145.87C145.459 18.702 144.813 17.8761 143.903 17.2566C142.993 16.6372 141.877 16.3422 140.526 16.3422C139.176 16.3422 138.5 16.6077 137.62 17.1091C136.739 17.6106 136.063 18.348 135.564 19.3215C135.065 20.2949 134.801 21.4158 134.801 22.6843C134.801 23.9527 135.065 25.0441 135.564 26.0175C136.063 26.991 136.739 27.6989 137.62 28.2299C138.5 28.7314 139.469 28.9969 140.526 28.9969C141.583 28.9969 142.993 28.7019 143.903 28.0824C144.813 27.463 145.459 26.637 145.87 25.5751H146.898C146.399 26.9025 145.606 27.9644 144.52 28.7019C143.433 29.4393 142.112 29.8228 140.526 29.8228C138.941 29.8228 138.148 29.5278 137.12 28.9084C136.122 28.3184 135.329 27.4629 134.742 26.3715C134.155 25.2801 133.891 24.0707 133.891 22.7138C133.891 21.3274 134.184 20.0884 134.742 18.997V18.9675Z" fill="#9A57FE"/>
<path id="Vector_19" d="M151.89 19.0563C152.565 18.5843 153.446 18.3778 154.533 18.3778V19.3512H154.239C153.153 19.3512 152.242 19.6757 151.508 20.2952C150.774 20.9146 150.422 21.9471 150.422 23.363V29.7936H149.512V18.6138H150.422V21.0621C150.716 20.2067 151.185 19.5282 151.89 19.0858V19.0563Z" fill="#9A57FE"/>
<path id="Vector_20" d="M166.247 24.3953H156.704C156.704 25.3983 156.939 26.2242 157.35 26.9322C157.761 27.6106 158.29 28.1416 158.965 28.4661C159.64 28.82 160.345 28.9675 161.138 28.9675C161.931 28.9675 163.135 28.702 163.869 28.1711C164.603 27.6401 165.072 26.9027 165.249 25.9587H166.218C166.012 27.0796 165.454 27.9941 164.544 28.702C163.634 29.41 162.518 29.764 161.138 29.764C159.758 29.764 159.171 29.528 158.378 29.056C157.556 28.5841 156.939 27.9351 156.469 27.0502C156 26.1947 155.765 25.1623 155.765 24.0118C155.765 22.8614 156 21.8585 156.44 20.9736C156.91 20.1181 157.526 19.4691 158.349 18.9972C159.171 18.5252 160.081 18.3187 161.138 18.3187C162.195 18.3187 163.105 18.5547 163.898 18.9972C164.691 19.4691 165.278 20.0591 165.689 20.7966C166.1 21.5635 166.306 22.36 166.306 23.2154C166.306 23.7169 166.306 24.0708 166.276 24.3068L166.247 24.3953ZM164.838 21.1505C164.456 20.4721 163.927 19.9706 163.252 19.6166C162.577 19.2922 161.872 19.1152 161.109 19.1152C160.345 19.1152 159.611 19.2922 158.936 19.6166C158.29 19.9706 157.761 20.4721 157.35 21.1505C156.939 21.829 156.734 22.6549 156.704 23.6579H165.366C165.395 22.6549 165.219 21.829 164.838 21.1505Z" fill="#9A57FE"/>
<path id="Vector_21" d="M168.596 21.0323C169.066 20.1769 169.712 19.4984 170.534 19.056C171.356 18.584 172.296 18.3775 173.353 18.3775C174.41 18.3775 175.496 18.6725 176.348 19.233C177.199 19.7934 177.787 20.5309 178.139 21.4158V14.4838H179.078V29.6163H178.139V26.6665C177.816 27.5809 177.229 28.3184 176.407 28.9083C175.584 29.4983 174.557 29.7638 173.382 29.7638C172.208 29.7638 171.386 29.5278 170.563 29.0558C169.741 28.5838 169.095 27.9349 168.626 27.0499C168.156 26.1945 167.921 25.1916 167.921 24.0411C167.921 22.8907 168.156 21.8878 168.626 21.0323H168.596ZM177.493 21.4748C177.082 20.7374 176.524 20.1474 175.819 19.7639C175.115 19.3509 174.322 19.174 173.441 19.174C172.56 19.174 171.709 19.3804 171.033 19.7639C170.358 20.1474 169.8 20.7079 169.418 21.4453C169.037 22.1828 168.831 23.0677 168.831 24.0706C168.831 25.0736 169.037 25.9585 169.418 26.696C169.8 27.4334 170.358 27.9939 171.063 28.3774C171.767 28.7608 172.56 28.9673 173.47 28.9673C174.381 28.9673 175.144 28.7608 175.849 28.3774C176.553 27.9644 177.111 27.4039 177.522 26.6665C177.933 25.929 178.139 25.0736 178.139 24.0706C178.139 23.0677 177.933 22.2418 177.522 21.5043L177.493 21.4748Z" fill="#9A57FE"/>
<path id="Vector_22" d="M182.162 15.6047C182.015 15.4573 181.927 15.2508 181.927 15.0148C181.927 14.7788 182.015 14.5723 182.162 14.4248C182.308 14.2773 182.514 14.1888 182.72 14.1888C182.925 14.1888 183.131 14.2773 183.277 14.4248C183.424 14.5723 183.512 14.7788 183.512 15.0148C183.512 15.2508 183.424 15.4573 183.277 15.6047C183.131 15.7522 182.925 15.8112 182.72 15.8112C182.514 15.8112 182.308 15.7522 182.162 15.6047ZM183.189 18.3481V29.6163H182.25V18.3481H183.189Z" fill="#9A57FE"/>
<path id="Vector_23" d="M187.652 19.174V26.6076C187.652 27.4335 187.799 27.994 188.093 28.3184C188.386 28.6429 188.944 28.7904 189.708 28.7904H190.97V29.6164H189.561C188.592 29.6164 187.858 29.3804 187.417 28.9379C186.948 28.4659 186.742 27.699 186.742 26.6371V19.2035H185.039V18.4071H186.742V15.5458H187.682V18.4071H191V19.2035H187.682L187.652 19.174Z" fill="#9A57FE"/>
</g>
</g>
</g>
</g>
<defs>
<linearGradient id="paint0_linear_0_16954" x1="35.8804" y1="-5.87007" x2="8.75198" y2="50.8163" gradientUnits="userSpaceOnUse">
<stop offset="0.1" stop-color="#C686FF"/>
<stop offset="1" stop-color="#5E1BF4"/>
</linearGradient>
<linearGradient id="paint1_linear_0_16954" x1="32.0334" y1="-7.19758" x2="4.87526" y2="49.6363" gradientUnits="userSpaceOnUse">
<stop stop-color="#C686FF"/>
<stop offset="0.9" stop-color="#5E1BF4"/>
</linearGradient>
<linearGradient id="paint2_linear_0_16954" x1="31.8289" y1="-7.22691" x2="4.70041" y2="49.4595" gradientUnits="userSpaceOnUse">
<stop stop-color="#C686FF"/>
<stop offset="1" stop-color="#5E1BF4"/>
</linearGradient>
<linearGradient id="paint3_linear_0_16954" x1="19.6432" y1="-13.0675" x2="-7.4558" y2="43.6486" gradientUnits="userSpaceOnUse">
<stop stop-color="#C686FF"/>
<stop offset="1" stop-color="#5E1BF4"/>
</linearGradient>
<linearGradient id="paint4_linear_0_16954" x1="41.4879" y1="-2.59565" x2="14.389" y2="54.0909" gradientUnits="userSpaceOnUse">
<stop stop-color="#C686FF"/>
<stop offset="1" stop-color="#5E1BF4"/>
</linearGradient>
<linearGradient id="paint5_linear_0_16954" x1="52.9105" y1="2.8613" x2="25.8115" y2="59.5479" gradientUnits="userSpaceOnUse">
<stop stop-color="#C686FF"/>
<stop offset="1" stop-color="#5E1BF4"/>
</linearGradient>
<linearGradient id="paint6_linear_0_16954" x1="39.7556" y1="-3.42193" x2="12.6271" y2="53.294" gradientUnits="userSpaceOnUse">
<stop stop-color="#C686FF"/>
<stop offset="1" stop-color="#5E1BF4"/>
</linearGradient>
<linearGradient id="paint7_linear_0_16954" x1="27.7479" y1="-9.23296" x2="0.648935" y2="47.4831" gradientUnits="userSpaceOnUse">
<stop stop-color="#C686FF"/>
<stop offset="1" stop-color="#5E1BF4"/>
</linearGradient>
<linearGradient id="paint8_linear_0_16954" x1="44.0728" y1="-1.44535" x2="16.9444" y2="55.2411" gradientUnits="userSpaceOnUse">
<stop stop-color="#C686FF"/>
<stop offset="1" stop-color="#5E1BF4"/>
</linearGradient>
<linearGradient id="paint9_linear_0_16954" x1="117.039" y1="19.1737" x2="115.706" y2="12.7751" gradientUnits="userSpaceOnUse">
<stop stop-color="#C686FF"/>
<stop offset="1" stop-color="#5E1BF4"/>
</linearGradient>
</defs>
</svg>
