<svg width="41" height="30" viewBox="0 0 41 30" fill="none" xmlns="http://www.w3.org/2000/svg">
<path id="Vector" opacity="0.12" d="M30.9555 17.7759C31.4009 17.7759 31.8282 17.7114 32.2536 17.6526C32.1158 18.0925 31.974 18.5399 31.7463 18.9418C31.5187 19.5258 31.1632 20.032 30.8097 20.542C30.5142 21.0937 29.9929 21.4671 29.6095 21.9392C29.2081 22.398 28.6609 22.7033 28.2275 23.0843C27.8022 23.4825 27.245 23.6815 26.8016 23.9621C26.3383 24.2143 25.9349 24.493 25.5036 24.6257L24.4271 25.0466L23.4805 25.42L24.4491 29.0942L25.6413 28.8212C26.0228 28.7302 26.4881 28.6241 27.0173 28.497C27.5585 28.4022 28.1357 28.1425 28.7787 27.9055C29.4138 27.6363 30.1487 27.4543 30.8317 27.022C31.5187 26.6087 32.3115 26.2637 33.0105 25.7101C33.6875 25.1394 34.5043 24.6446 35.1074 23.9185C35.7664 23.2398 36.4175 22.5269 36.9227 21.7155C37.5079 20.942 37.9053 20.0926 38.3247 19.2528C38.7041 18.4129 39.0096 17.5541 39.2593 16.7199C39.7326 15.0477 39.9443 13.459 40.0261 12.0996C40.094 10.7384 40.0541 9.60657 39.9702 8.78755C39.9403 8.40079 39.8844 8.02541 39.8444 7.76567L39.7945 7.44717L39.7426 7.45854C39.3874 5.88339 38.5697 4.4359 37.3841 3.28349C36.1985 2.13108 34.6935 1.32086 33.0432 0.946552C31.3928 0.572245 29.6645 0.649143 28.0583 1.16835C26.452 1.68756 25.0334 2.62787 23.9666 3.8805C22.8998 5.13312 22.2283 6.64688 22.0298 8.24666C21.8314 9.84645 22.1141 11.4669 22.8452 12.9205C23.5763 14.3741 24.726 15.6016 26.1613 16.4608C27.5965 17.3201 29.2587 17.776 30.9555 17.7759ZM8.9879 17.7759C9.43325 17.7759 9.86061 17.7114 10.286 17.6526C10.1482 18.0925 10.0064 18.5399 9.77874 18.9418C9.55107 19.5258 9.1956 20.032 8.84212 20.542C8.54655 21.0937 8.02532 21.4671 7.64189 21.9392C7.24048 22.398 6.69329 22.7033 6.25993 23.0843C5.83455 23.4825 5.27737 23.6815 4.83403 23.9621C4.37071 24.2143 3.96731 24.493 3.53594 24.6257L2.45953 25.0466L1.51292 25.42L2.48149 29.0942L3.67374 28.8212C4.05518 28.7302 4.52049 28.6241 5.04971 28.497C5.59091 28.4022 6.16806 28.1425 6.81111 27.9055C7.44418 27.6344 8.18109 27.4543 8.86408 27.0202C9.55107 26.6069 10.3439 26.2618 11.0429 25.7082C11.7199 25.1376 12.5367 24.6427 13.1398 23.9185C13.7988 23.2398 14.4499 22.5269 14.9551 21.7155C15.5402 20.942 15.9377 20.0926 16.357 19.2528C16.7365 18.4129 17.042 17.5541 17.2917 16.7199C17.765 15.0477 17.9767 13.459 18.0585 12.0996C18.1264 10.7384 18.0865 9.60657 18.0026 8.78755C17.9727 8.40079 17.9167 8.02541 17.8768 7.76567L17.8269 7.44717L17.7749 7.45854C17.4198 5.88339 16.6021 4.4359 15.4165 3.28349C14.2309 2.13108 12.7259 1.32086 11.0755 0.946552C9.42518 0.572245 7.69692 0.649143 6.09067 1.16835C4.48442 1.68756 3.06583 2.62787 1.99899 3.8805C0.932159 5.13312 0.260674 6.64688 0.0622253 8.24666C-0.136223 9.84645 0.146465 11.4669 0.877594 12.9205C1.60872 14.3741 2.75841 15.6016 4.19367 16.4608C5.62893 17.3201 7.2911 17.776 8.9879 17.7759Z" fill="#9A57FE"/>
</svg>
