<svg width="32" height="31" viewBox="0 0 32 31" fill="none" xmlns="http://www.w3.org/2000/svg">
<g id="Frame" clip-path="url(#clip0_0_16849)">
<g id="Group">
<path id="Vector" d="M15.9104 14.194C11.9084 13.7886 12.9563 10.5349 15.8337 10.5349C16.2774 10.5162 16.7192 10.604 17.1221 10.7911C17.5249 10.9781 17.8771 11.259 18.1492 11.6101C18.5358 12.1887 19.3181 12.3443 19.8967 11.9577C20.4682 11.5758 20.6282 10.8064 20.2563 10.2283C19.5108 9.15327 18.3766 8.41001 17.0934 8.15553V7.28611C17.0876 6.59037 16.5188 6.0311 15.8231 6.03691C15.1356 6.04265 14.5796 6.59861 14.5739 7.28611V8.15685C9.47087 9.28294 9.15927 16.0411 15.6562 16.7007C19.7632 17.1186 18.7445 20.414 15.8337 20.414C15.3834 20.4349 14.9348 20.3449 14.5275 20.1518C14.1201 19.9587 13.7664 19.6686 13.4975 19.3068C13.124 18.7197 12.3453 18.5466 11.7583 18.92C11.1782 19.2891 11.0011 20.0551 11.3604 20.6413C11.7265 21.1952 12.1992 21.6707 12.7509 22.0402C13.3026 22.4096 13.9223 22.6655 14.5739 22.793V23.6627C14.5798 24.3585 15.1485 24.9177 15.8442 24.9119C16.5317 24.9062 17.0877 24.3502 17.0934 23.6627V22.792C22.265 21.6508 22.4595 14.8577 15.9104 14.194Z" fill="#9A57FE"/>
<path id="Vector_2" d="M6.45699 7.70242C2.16466 12.8813 2.8833 20.5591 8.06208 24.8515C10.2474 26.6627 12.9968 27.6539 15.8352 27.6536C18.0273 27.6561 18.0304 30.9752 15.8331 30.9752H15.8309C7.26981 30.9731 0.331421 24.0313 0.333497 15.4702C0.334451 11.666 1.73424 7.99496 4.2664 5.15594L3.53724 5.06473C1.36125 4.79202 1.76946 1.49921 3.95085 1.76909L8.3696 2.3238C9.20789 2.42905 9.83359 3.14679 9.82363 3.99165L9.77173 8.32688C9.74467 10.5467 6.42419 10.4865 6.45014 8.28688L6.45699 7.70242ZM24.4961 24.0341C29.2235 19.249 29.1767 11.5378 24.3917 6.81037C22.3725 4.8155 19.72 3.58854 16.8924 3.34145C14.7089 3.14783 14.9951 -0.158816 17.1841 0.0326599L17.1862 0.0328675C25.7145 0.781125 32.0215 8.30121 31.2732 16.8295C30.9407 20.6192 29.2263 24.1543 26.4563 26.7618L27.1747 26.9162C29.3187 27.3776 28.625 30.6223 26.4755 30.1633L22.1218 29.2256C21.2959 29.0477 20.7351 28.2781 20.8187 27.4374L21.2482 23.1231C21.4686 20.9141 24.7712 21.2635 24.5537 23.4524L24.4961 24.0341Z" fill="#9A57FE"/>
</g>
</g>
<defs>
<clipPath id="clip0_0_16849">
<rect width="31" height="31" fill="white" transform="translate(0.333496)"/>
</clipPath>
</defs>
</svg>
